<svg width="116" height="116" viewBox="0 0 116 116" fill="none" xmlns="http://www.w3.org/2000/svg">
<g clip-path="url(#clip0_2_72)">
<path d="M100.368 0H15.632C6.99925 0 0.000732422 6.99823 0.000732422 15.6312V100.368C0.000732422 109.001 6.99896 115.999 15.632 115.999H57.4236L57.4948 74.5475H46.7256C45.3261 74.5475 44.1901 73.4159 44.1847 72.0163L44.1331 58.6546C44.1277 57.2475 45.267 56.1039 46.6742 56.1039H57.4238V43.1931C57.4238 28.2103 66.5744 20.052 79.9401 20.052H90.9076C92.3108 20.052 93.4487 21.1896 93.4487 22.5931V33.8598C93.4487 35.2627 92.3117 36.4 90.909 36.4009L84.1784 36.404C76.9097 36.404 75.5023 39.858 75.5023 44.9269V56.1042H91.474C92.9958 56.1042 94.1766 57.433 93.9973 58.9444L92.4136 72.306C92.262 73.5847 91.1778 74.5481 89.8903 74.5481H75.5735L75.5023 116H100.369C109.002 116 116 109.002 116 100.369V15.6312C116 6.99823 109.001 0 100.368 0Z" fill="white"/>
</g>
<defs>
<clipPath id="clip0_2_72">
<rect width="116" height="116" fill="white"/>
</clipPath>
</defs>
</svg>
