<svg width="134" height="45" viewBox="0 0 134 45" fill="none" xmlns="http://www.w3.org/2000/svg">
<path d="M118.367 15.0547V35H111.617V9.64062H117.945L118.367 15.0547ZM117.383 21.4297H115.555C115.555 19.5547 115.797 17.8672 116.281 16.3672C116.766 14.8516 117.445 13.5625 118.32 12.5C119.195 11.4219 120.234 10.6016 121.438 10.0391C122.656 9.46094 124.016 9.17188 125.516 9.17188C126.703 9.17188 127.789 9.34375 128.773 9.6875C129.758 10.0312 130.602 10.5781 131.305 11.3281C132.023 12.0781 132.57 13.0703 132.945 14.3047C133.336 15.5391 133.531 17.0469 133.531 18.8281V35H126.734V18.8047C126.734 17.6797 126.578 16.8047 126.266 16.1797C125.953 15.5547 125.492 15.1172 124.883 14.8672C124.289 14.6016 123.555 14.4688 122.68 14.4688C121.773 14.4688 120.984 14.6484 120.312 15.0078C119.656 15.3672 119.109 15.8672 118.672 16.5078C118.25 17.1328 117.93 17.8672 117.711 18.7109C117.492 19.5547 117.383 20.4609 117.383 21.4297Z" fill="#6738A2"/>
<path d="M99.8516 28.9297V9.64062H106.602V35H100.25L99.8516 28.9297ZM100.602 23.7266L102.594 23.6797C102.594 25.3672 102.398 26.9375 102.008 28.3906C101.617 29.8281 101.031 31.0781 100.25 32.1406C99.4688 33.1875 98.4844 34.0078 97.2969 34.6016C96.1094 35.1797 94.7109 35.4688 93.1016 35.4688C91.8672 35.4688 90.7266 35.2969 89.6797 34.9531C88.6484 34.5938 87.7578 34.0391 87.0078 33.2891C86.2734 32.5234 85.6953 31.5469 85.2734 30.3594C84.8672 29.1562 84.6641 27.7109 84.6641 26.0234V9.64062H91.4141V26.0703C91.4141 26.8203 91.5 27.4531 91.6719 27.9688C91.8594 28.4844 92.1172 28.9062 92.4453 29.2344C92.7734 29.5625 93.1562 29.7969 93.5938 29.9375C94.0469 30.0781 94.5469 30.1484 95.0938 30.1484C96.4844 30.1484 97.5781 29.8672 98.375 29.3047C99.1875 28.7422 99.7578 27.9766 100.086 27.0078C100.43 26.0234 100.602 24.9297 100.602 23.7266Z" fill="#6738A2"/>
<path d="M73.4844 9.64062H79.6016V34.1562C79.6016 36.4688 79.0859 38.4297 78.0547 40.0391C77.0391 41.6641 75.6172 42.8906 73.7891 43.7188C71.9609 44.5625 69.8359 44.9844 67.4141 44.9844C66.3516 44.9844 65.2266 44.8438 64.0391 44.5625C62.8672 44.2812 61.7422 43.8438 60.6641 43.25C59.6016 42.6562 58.7109 41.9062 57.9922 41L60.9688 37.0156C61.75 37.9219 62.6562 38.625 63.6875 39.125C64.7188 39.6406 65.8594 39.8984 67.1094 39.8984C68.3281 39.8984 69.3594 39.6719 70.2031 39.2188C71.0469 38.7812 71.6953 38.1328 72.1484 37.2734C72.6016 36.4297 72.8281 35.4062 72.8281 34.2031V15.5L73.4844 9.64062ZM56.4219 22.625V22.1328C56.4219 20.1953 56.6562 18.4375 57.125 16.8594C57.6094 15.2656 58.2891 13.8984 59.1641 12.7578C60.0547 11.6172 61.1328 10.7344 62.3984 10.1094C63.6641 9.48438 65.0938 9.17188 66.6875 9.17188C68.375 9.17188 69.7891 9.48438 70.9297 10.1094C72.0703 10.7344 73.0078 11.625 73.7422 12.7812C74.4766 13.9219 75.0469 15.2734 75.4531 16.8359C75.875 18.3828 76.2031 20.0781 76.4375 21.9219V23C76.2031 24.7656 75.8516 26.4062 75.3828 27.9219C74.9141 29.4375 74.2969 30.7656 73.5312 31.9062C72.7656 33.0312 71.8125 33.9062 70.6719 34.5312C69.5469 35.1562 68.2031 35.4688 66.6406 35.4688C65.0781 35.4688 63.6641 35.1484 62.3984 34.5078C61.1484 33.8672 60.0781 32.9688 59.1875 31.8125C58.2969 30.6562 57.6094 29.2969 57.125 27.7344C56.6562 26.1719 56.4219 24.4688 56.4219 22.625ZM63.1719 22.1328V22.625C63.1719 23.6719 63.2734 24.6484 63.4766 25.5547C63.6797 26.4609 63.9922 27.2656 64.4141 27.9688C64.8516 28.6562 65.3906 29.1953 66.0312 29.5859C66.6875 29.9609 67.4609 30.1484 68.3516 30.1484C69.5859 30.1484 70.5938 29.8906 71.375 29.375C72.1562 28.8438 72.7422 28.1172 73.1328 27.1953C73.5234 26.2734 73.75 25.2109 73.8125 24.0078V20.9375C73.7812 19.9531 73.6484 19.0703 73.4141 18.2891C73.1797 17.4922 72.8516 16.8125 72.4297 16.25C72.0078 15.6875 71.4609 15.25 70.7891 14.9375C70.1172 14.625 69.3203 14.4688 68.3984 14.4688C67.5078 14.4688 66.7344 14.6719 66.0781 15.0781C65.4375 15.4688 64.8984 16.0078 64.4609 16.6953C64.0391 17.3828 63.7188 18.1953 63.5 19.1328C63.2812 20.0547 63.1719 21.0547 63.1719 22.1328Z" fill="#6738A2"/>
<path d="M45.5234 28.9297V9.64062H52.2734V35H45.9219L45.5234 28.9297ZM46.2734 23.7266L48.2656 23.6797C48.2656 25.3672 48.0703 26.9375 47.6797 28.3906C47.2891 29.8281 46.7031 31.0781 45.9219 32.1406C45.1406 33.1875 44.1562 34.0078 42.9688 34.6016C41.7812 35.1797 40.3828 35.4688 38.7734 35.4688C37.5391 35.4688 36.3984 35.2969 35.3516 34.9531C34.3203 34.5938 33.4297 34.0391 32.6797 33.2891C31.9453 32.5234 31.3672 31.5469 30.9453 30.3594C30.5391 29.1562 30.3359 27.7109 30.3359 26.0234V9.64062H37.0859V26.0703C37.0859 26.8203 37.1719 27.4531 37.3438 27.9688C37.5312 28.4844 37.7891 28.9062 38.1172 29.2344C38.4453 29.5625 38.8281 29.7969 39.2656 29.9375C39.7188 30.0781 40.2188 30.1484 40.7656 30.1484C42.1562 30.1484 43.25 29.8672 44.0469 29.3047C44.8594 28.7422 45.4297 27.9766 45.7578 27.0078C46.1016 26.0234 46.2734 24.9297 46.2734 23.7266Z" fill="#6738A2"/>
<path d="M13.2969 22.8359H4.60156V17.3516H13.2969C14.6406 17.3516 15.7344 17.1328 16.5781 16.6953C17.4219 16.2422 18.0391 15.6172 18.4297 14.8203C18.8203 14.0234 19.0156 13.125 19.0156 12.125C19.0156 11.1094 18.8203 10.1641 18.4297 9.28906C18.0391 8.41406 17.4219 7.71094 16.5781 7.17969C15.7344 6.64844 14.6406 6.38281 13.2969 6.38281H7.03906V35H0.0078125V0.875H13.2969C15.9688 0.875 18.2578 1.35938 20.1641 2.32812C22.0859 3.28125 23.5547 4.60156 24.5703 6.28906C25.5859 7.97656 26.0938 9.90625 26.0938 12.0781C26.0938 14.2812 25.5859 16.1875 24.5703 17.7969C23.5547 19.4062 22.0859 20.6484 20.1641 21.5234C18.2578 22.3984 15.9688 22.8359 13.2969 22.8359Z" fill="#6738A2"/>
</svg>
