<svg width="155" height="155" viewBox="0 0 155 155" fill="none" xmlns="http://www.w3.org/2000/svg">
<path d="M148.958 32.3225C143.363 25.6715 133.033 22.9585 113.305 22.9585H41.693C21.5135 22.9585 11.0085 25.8465 5.4345 32.9275C0 39.8315 0 50.004 0 64.083V90.9175C0 118.193 6.448 132.042 41.693 132.042H113.306C130.414 132.042 139.894 129.648 146.027 123.778C152.316 117.759 155 107.931 155 90.9175V64.083C155 49.2355 154.579 39.003 148.958 32.3225ZM99.5105 81.205L66.9915 98.2005C66.2645 98.5805 65.4695 98.769 64.6755 98.769C63.7765 98.769 62.8795 98.527 62.085 98.046C60.589 97.1395 59.6755 95.518 59.6755 93.769V59.887C59.6755 58.141 60.5865 56.521 62.0795 55.614C63.573 54.707 65.4305 54.645 66.98 55.45L99.499 72.336C101.154 73.195 102.192 74.903 102.195 76.7665C102.197 78.6315 101.162 80.342 99.5105 81.205Z" fill="white"/>
</svg>
